<svg id="svg" version="1.1" xmlns="http://www.w3.org/2000/svg" xmlns:xlink="http://www.w3.org/1999/xlink" width="400" height="279.31873479318733" viewBox="0, 0, 400,279.31873479318733"><g id="svgg"><path id="path0" d="M18.285 63.198 C 18.212 63.390,18.185 86.550,18.224 114.665 L 18.296 165.782 75.489 165.853 L 132.682 165.923 132.682 114.386 L 132.682 62.849 75.550 62.849 C 30.102 62.849,18.391 62.921,18.285 63.198 M128.212 114.385 L 128.212 161.173 75.559 161.173 L 22.905 161.173 22.905 114.385 L 22.905 67.598 75.559 67.598 L 128.212 67.598 128.212 114.385 M49.446 73.062 C 49.442 73.609,49.286 73.638,46.399 73.631 C 44.138 73.627,43.227 73.730,42.853 74.033 C 42.411 74.393,42.380 74.392,42.592 74.022 C 42.781 73.694,42.717 73.703,42.297 74.063 C 42.001 74.316,41.508 74.569,41.201 74.626 C 40.646 74.728,40.642 74.977,40.572 114.468 L 40.501 154.208 50.488 154.129 L 60.475 154.050 60.547 140.014 L 60.620 125.978 64.245 125.978 C 67.806 125.978,69.311 126.356,68.833 127.131 C 68.759 127.249,68.954 127.483,69.266 127.649 C 69.577 127.816,69.832 128.137,69.832 128.362 C 69.832 128.587,70.021 128.771,70.251 128.771 C 70.482 128.771,70.670 128.968,70.670 129.210 C 70.670 129.730,71.367 130.495,71.615 130.247 C 71.710 130.152,71.788 130.333,71.788 130.650 C 71.788 130.966,71.976 131.297,72.207 131.386 C 72.437 131.474,72.626 131.802,72.626 132.114 C 72.626 132.432,72.810 132.682,73.045 132.682 C 73.275 132.682,73.464 132.915,73.464 133.201 C 73.464 133.487,73.891 134.174,74.414 134.728 C 74.936 135.282,75.533 136.117,75.739 136.583 C 75.945 137.049,76.209 137.430,76.325 137.430 C 76.441 137.430,76.536 137.667,76.536 137.956 C 76.536 138.256,76.789 138.548,77.123 138.636 C 77.465 138.725,77.629 138.920,77.516 139.102 C 77.410 139.274,77.568 139.628,77.867 139.889 C 78.167 140.150,78.502 140.648,78.611 140.996 C 78.721 141.344,78.928 141.556,79.070 141.468 C 79.337 141.303,79.432 141.670,79.344 142.528 C 79.317 142.797,79.436 143.017,79.608 143.017 C 79.780 143.017,79.830 143.164,79.719 143.344 C 79.583 143.563,79.670 143.612,79.982 143.492 C 80.281 143.377,80.447 143.455,80.447 143.710 C 80.447 143.928,80.635 144.211,80.864 144.340 C 81.094 144.468,81.311 144.934,81.348 145.374 C 81.388 145.868,81.603 146.225,81.908 146.305 C 82.238 146.391,82.402 146.704,82.402 147.248 C 82.402 147.714,82.581 148.131,82.821 148.223 C 83.052 148.311,83.240 148.559,83.240 148.773 C 83.240 148.987,83.334 149.163,83.450 149.164 C 83.664 149.166,84.358 150.489,84.358 150.894 C 84.358 151.017,84.609 151.400,84.916 151.746 C 86.155 153.139,86.313 153.369,86.313 153.774 C 86.313 154.145,87.645 154.188,97.249 154.123 L 108.185 154.050 108.286 153.386 C 108.346 152.990,108.188 152.558,107.895 152.317 C 107.624 152.095,107.557 151.992,107.746 152.087 C 107.953 152.192,107.898 151.924,107.606 151.412 C 107.340 150.944,106.983 150.561,106.812 150.560 C 106.641 150.559,106.499 150.276,106.497 149.930 C 106.488 148.770,106.427 148.603,106.006 148.603 C 105.723 148.603,105.587 148.321,105.587 147.739 C 105.587 147.120,105.434 146.835,105.047 146.734 C 104.751 146.656,104.566 146.441,104.638 146.255 C 104.709 146.069,104.514 145.625,104.204 145.267 C 103.894 144.910,103.487 144.195,103.300 143.678 C 103.113 143.160,102.860 142.737,102.737 142.737 C 102.614 142.737,102.514 142.486,102.514 142.179 C 102.514 141.868,102.328 141.620,102.095 141.620 C 101.865 141.620,101.666 141.526,101.655 141.411 C 101.576 140.643,101.393 140.180,101.021 139.808 C 100.787 139.574,100.516 139.132,100.418 138.825 C 100.321 138.519,100.124 138.268,99.981 138.268 C 99.838 138.268,99.719 137.985,99.716 137.640 C 99.712 137.013,99.190 135.922,99.149 136.453 C 99.136 136.606,98.989 136.418,98.821 136.034 C 98.653 135.649,98.534 135.245,98.556 135.136 C 98.579 135.026,98.410 135.008,98.181 135.096 C 97.787 135.247,97.648 134.892,97.694 133.850 C 97.703 133.640,97.535 133.548,97.304 133.637 C 97.066 133.728,96.973 133.672,97.078 133.502 C 97.177 133.342,96.956 132.932,96.588 132.591 C 95.918 131.970,95.401 131.056,95.489 130.649 C 95.515 130.529,95.346 130.359,95.114 130.270 C 94.882 130.181,94.693 129.933,94.693 129.719 C 94.693 129.505,94.504 129.330,94.274 129.330 C 94.043 129.330,93.855 129.093,93.855 128.804 C 93.855 128.512,93.605 128.212,93.295 128.131 C 92.921 128.033,92.792 127.837,92.906 127.540 C 93.002 127.290,92.934 127.095,92.751 127.095 C 92.572 127.095,92.499 126.976,92.589 126.830 C 92.679 126.684,92.498 126.428,92.187 126.261 C 91.875 126.094,91.620 125.774,91.620 125.549 C 91.620 125.324,91.494 125.140,91.341 125.140 C 91.187 125.140,91.061 124.951,91.061 124.721 C 91.061 124.490,90.967 124.317,90.852 124.335 C 90.272 124.426,89.944 124.259,89.944 123.871 C 89.944 123.634,89.684 123.163,89.366 122.824 L 88.789 122.207 89.785 122.120 C 90.426 122.064,90.782 121.890,90.782 121.631 C 90.782 121.410,91.034 121.229,91.341 121.229 C 91.648 121.229,91.899 121.107,91.899 120.958 C 91.899 120.810,92.088 120.760,92.318 120.849 C 92.549 120.937,92.737 120.882,92.737 120.727 C 92.737 120.571,93.272 120.130,93.925 119.746 C 95.460 118.842,96.648 117.810,96.648 117.379 C 96.648 117.192,96.742 117.054,96.858 117.072 C 97.482 117.171,97.765 116.977,97.765 116.451 C 97.765 116.042,97.894 115.911,98.184 116.023 C 98.419 116.113,98.603 116.030,98.603 115.835 C 98.603 115.644,98.855 115.272,99.162 115.009 C 99.469 114.746,99.721 114.208,99.721 113.813 C 99.721 113.418,99.837 113.168,99.980 113.256 C 100.122 113.344,100.323 113.150,100.426 112.826 C 100.530 112.501,100.853 111.996,101.145 111.704 C 101.437 111.412,101.676 110.796,101.676 110.335 C 101.676 109.874,101.793 109.497,101.936 109.497 C 102.250 109.497,102.544 108.636,102.693 107.282 C 102.753 106.734,102.821 106.133,102.844 105.948 C 102.867 105.763,102.978 105.668,103.090 105.737 C 103.833 106.196,103.872 94.031,103.130 93.207 C 102.876 92.926,102.650 92.153,102.623 91.471 C 102.596 90.796,102.383 90.053,102.150 89.820 C 101.917 89.587,101.639 88.875,101.531 88.237 C 101.393 87.422,101.263 87.192,101.091 87.463 C 100.842 87.857,100.818 87.805,100.698 86.604 C 100.660 86.226,100.485 85.869,100.308 85.810 C 100.131 85.751,99.806 85.273,99.587 84.747 C 99.367 84.221,99.007 83.722,98.786 83.637 C 98.543 83.544,98.438 83.244,98.519 82.873 C 98.626 82.379,98.595 82.343,98.353 82.682 C 98.149 82.966,98.052 82.989,98.049 82.751 C 98.047 82.559,97.865 82.402,97.645 82.402 C 97.424 82.402,97.165 82.151,97.067 81.844 C 96.966 81.525,96.644 81.285,96.320 81.285 C 95.928 81.285,95.801 81.154,95.911 80.866 C 95.999 80.635,95.950 80.431,95.801 80.412 C 95.652 80.393,95.427 80.361,95.301 80.342 C 95.175 80.323,94.852 80.087,94.583 79.818 C 94.314 79.550,93.970 79.330,93.818 79.330 C 93.667 79.330,93.620 79.204,93.715 79.050 C 93.810 78.897,93.692 78.771,93.452 78.771 C 93.213 78.771,93.017 78.638,93.017 78.475 C 93.017 78.312,92.893 78.256,92.741 78.350 C 92.587 78.445,92.533 78.343,92.618 78.121 C 92.751 77.773,91.843 77.411,90.447 77.256 C 90.339 77.244,90.094 77.078,89.902 76.885 C 89.710 76.693,89.372 76.536,89.151 76.536 C 88.930 76.536,88.606 76.341,88.432 76.103 C 88.257 75.864,87.678 75.601,87.144 75.517 C 86.610 75.432,85.922 75.220,85.615 75.043 C 84.965 74.671,84.883 74.656,83.310 74.613 C 82.455 74.590,82.123 74.464,82.123 74.162 C 82.123 73.668,82.188 73.684,79.933 73.627 C 78.586 73.594,78.098 73.469,77.895 73.107 C 77.552 72.494,50.003 72.373,49.996 72.985 C 49.993 73.197,49.890 73.167,49.721 72.905 C 49.498 72.560,49.449 72.588,49.446 73.062 M64.031 89.486 C 64.589 89.141,66.006 89.107,66.395 89.430 C 66.689 89.674,66.862 89.674,67.107 89.430 C 67.502 89.034,68.537 88.996,68.296 89.385 C 68.081 89.734,67.726 89.686,71.648 89.838 C 73.779 89.921,75.102 90.091,75.279 90.305 C 75.433 90.491,75.747 90.666,75.978 90.694 C 77.313 90.857,78.115 91.141,78.434 91.562 C 78.632 91.825,78.852 92.008,78.923 91.969 C 79.208 91.813,79.633 91.914,79.515 92.109 C 79.359 92.366,79.902 92.867,80.377 92.905 C 81.162 92.968,81.285 93.033,81.285 93.383 C 81.285 93.585,81.545 94.028,81.863 94.369 C 82.180 94.710,82.451 95.363,82.464 95.819 C 82.478 96.316,82.638 96.648,82.864 96.648 C 83.395 96.648,83.397 100.918,82.867 101.359 C 82.661 101.530,82.477 102.099,82.457 102.626 C 82.435 103.223,82.158 103.867,81.719 104.340 C 81.332 104.757,81.096 105.228,81.194 105.386 C 81.291 105.544,81.239 105.591,81.078 105.492 C 80.917 105.392,80.714 105.496,80.626 105.723 C 80.534 105.963,80.284 106.065,80.027 105.967 C 79.745 105.858,79.615 105.933,79.667 106.174 C 79.713 106.384,79.470 106.593,79.120 106.647 C 78.774 106.700,78.492 106.923,78.492 107.142 C 78.492 107.519,77.696 107.682,76.466 107.557 C 76.198 107.529,75.976 107.672,75.973 107.874 C 75.970 108.141,75.896 108.127,75.698 107.821 C 75.475 107.476,75.427 107.504,75.423 107.977 C 75.419 108.568,73.970 108.740,68.925 108.751 C 68.195 108.753,67.598 108.855,67.598 108.977 C 67.598 109.100,67.409 109.128,67.179 109.040 C 66.948 108.951,66.760 109.018,66.760 109.188 C 66.760 109.395,65.747 109.497,63.687 109.497 L 60.615 109.497 60.615 99.721 L 60.615 89.944 61.243 89.912 C 61.589 89.894,62.091 89.902,62.360 89.930 C 62.629 89.957,62.849 89.838,62.849 89.666 C 62.849 89.494,62.975 89.430,63.128 89.525 C 63.282 89.620,63.418 89.533,63.430 89.332 C 63.447 89.049,63.484 89.045,63.593 89.317 C 63.671 89.510,63.868 89.586,64.031 89.486 " stroke="none" fill="#b47c53" fill-rule="evenodd"></path><path id="path1" d="M140.782 99.860 L 140.782 167.039 156.705 167.039 L 172.628 167.039 172.625 99.860 L 172.621 32.682 156.702 32.682 L 140.782 32.682 140.782 99.860 M192.179 75.978 L 192.179 89.106 208.240 89.106 L 224.302 89.106 224.302 75.978 L 224.302 62.849 208.240 62.849 L 192.179 62.849 192.179 75.978 M65.207 89.516 C 64.909 89.742,64.791 89.926,64.944 89.926 C 65.098 89.926,65.467 89.742,65.766 89.516 C 66.064 89.291,66.182 89.106,66.029 89.106 C 65.875 89.106,65.505 89.291,65.207 89.516 M192.248 148.948 L 192.318 197.067 208.310 197.139 L 224.302 197.211 224.302 149.033 L 224.302 100.855 208.239 100.843 L 192.177 100.830 192.248 148.948 M65.922 108.955 C 65.922 109.118,65.805 109.179,65.662 109.090 C 65.519 109.002,65.330 109.046,65.241 109.189 C 65.015 109.556,65.859 109.392,66.260 108.992 C 66.517 108.735,66.516 108.659,66.257 108.659 C 66.073 108.659,65.922 108.792,65.922 108.955 " stroke="none" fill="#645c5c" fill-rule="evenodd"></path><path id="path2" d="" stroke="none" fill="#646464" fill-rule="evenodd"></path><path id="path3" d="M132.818 114.385 C 132.818 142.807,132.851 154.393,132.891 140.131 C 132.931 125.870,132.931 102.616,132.891 88.455 C 132.851 74.295,132.818 85.964,132.818 114.385 M128.069 114.385 C 128.069 140.196,128.102 150.713,128.142 137.757 C 128.183 124.802,128.183 103.684,128.142 90.830 C 128.102 77.975,128.069 88.575,128.069 114.385 M48.620 73.024 C 48.199 73.532,48.355 73.840,48.962 73.698 C 49.223 73.637,49.300 73.422,49.181 73.087 C 49.012 72.615,48.964 72.610,48.620 73.024 M89.885 76.869 C 90.068 77.051,90.439 77.232,90.709 77.270 C 91.146 77.331,91.140 77.294,90.659 76.938 C 90.002 76.451,89.416 76.399,89.885 76.869 M60.740 99.721 C 60.740 105.175,60.778 107.406,60.824 104.679 C 60.869 101.952,60.869 97.490,60.824 94.763 C 60.778 92.036,60.740 94.267,60.740 99.721 M80.535 105.237 C 80.439 105.506,80.298 105.840,80.221 105.979 C 80.144 106.118,80.226 106.142,80.404 106.032 C 80.581 105.923,80.726 105.662,80.726 105.454 C 80.726 105.245,80.883 105.011,81.075 104.934 C 81.349 104.823,81.347 104.788,81.067 104.771 C 80.870 104.759,80.630 104.969,80.535 105.237 M60.744 139.665 C 60.744 147.270,60.780 150.381,60.824 146.578 C 60.868 142.776,60.868 136.554,60.824 132.751 C 60.780 128.949,60.744 132.060,60.744 139.665 M67.598 126.097 C 67.598 126.347,68.489 127.095,68.788 127.095 C 68.959 127.095,68.830 126.844,68.500 126.536 C 67.925 126.001,67.598 125.842,67.598 126.097 M100.072 137.914 C 99.814 138.003,99.835 138.143,100.155 138.464 C 100.658 138.966,100.840 138.873,100.593 138.241 C 100.497 137.996,100.263 137.849,100.072 137.914 " stroke="none" fill="#b86c58" fill-rule="evenodd"></path><path id="path4" d="M94.684 79.773 C 94.909 80.067,95.116 80.347,95.144 80.396 C 95.172 80.444,95.274 80.356,95.371 80.200 C 95.467 80.044,95.260 79.764,94.910 79.577 C 94.310 79.258,94.297 79.269,94.684 79.773 " stroke="none" fill="#7c6c58" fill-rule="evenodd"></path></g></svg>